<svg version="1.1" viewBox="0.0 0.0 621.2887139107612 157.4041994750656" fill="none" stroke="none" stroke-linecap="square" stroke-miterlimit="10" xmlns:xlink="http://www.w3.org/1999/xlink" xmlns="http://www.w3.org/2000/svg"><clipPath id="p.0"><path d="m0 0l621.2887 0l0 157.4042l-621.2887 0l0 -157.4042z" clip-rule="nonzero"/></clipPath><g clip-path="url(#p.0)"><path fill="#000000" fill-opacity="0.0" d="m0 0l621.2887 0l0 157.4042l-621.2887 0z" fill-rule="evenodd"/><path fill="#ff0000" d="m6.8950133 31.9401l0 0c0 -12.912994 10.46805 -23.381044 23.381044 -23.381044l560.73395 0c6.20105 0 12.148132 2.4633532 16.532898 6.8481493c4.3848267 4.384797 6.8481445 10.331857 6.8481445 16.532894l0 93.52137c0 12.912994 -10.468018 23.381042 -23.381042 23.381042l-560.73395 0c-12.912994 0 -23.381044 -10.468048 -23.381044 -23.381042z" fill-rule="evenodd"/><path fill="#000000" fill-opacity="0.0" d="m34.913387 26.181103l549.2598 0l0 105.03937l-549.2598 0z" fill-rule="evenodd"/><path fill="#ffffff" d="m103.181114 103.021095l-11.109375 0l-4.421875 -11.484375l-20.21875 0l-4.171871 11.484375l-10.828125 0l19.703121 -50.57812l10.796875 0l20.25 50.57812zm-18.796875 -20.015625l-6.96875 -18.765625l-6.84375 18.765625l13.8125 0zm57.478813 20.015625l-9.703125 0l0 -18.703125q0 -5.9375 -0.625 -7.671875q-0.609375 -1.75 -2.015625 -2.703125q-1.390625 -0.96875 -3.3593826 -0.96875q-2.515625 0 -4.515625 1.375q-2.0 1.375 -2.75 3.65625q-0.734375 2.28125 -0.734375 8.421875l0 16.59375l-9.703125 0l0 -36.640625l9.0 0l0 5.390625q4.796875 -6.21875 12.078133 -6.21875q3.21875 0 5.875 1.15625q2.65625 1.15625 4.015625 2.953125q1.359375 1.796875 1.890625 4.078125q0.546875 2.265625 0.546875 6.515625l0 22.765625zm43.159653 0l-9.703125 0l0 -18.703125q0 -5.9375 -0.625 -7.671875q-0.609375 -1.75 -2.015625 -2.703125q-1.390625 -0.96875 -3.359375 -0.96875q-2.515625 0 -4.515625 1.375q-2.0 1.375 -2.75 3.65625q-0.734375 2.28125 -0.734375 8.421875l0 16.59375l-9.703125 0l0 -36.640625l9.0 0l0 5.390625q4.796875 -6.21875 12.078125 -6.21875q3.21875 0 5.875 1.15625q2.65625 1.15625 4.015625 2.953125q1.359375 1.796875 1.890625 4.078125q0.546875 2.265625 0.546875 6.515625l0 22.765625zm7.5815277 -18.84375q0 -4.828125 2.375 -9.34375q2.390625 -4.515625 6.75 -6.890625q4.359375 -2.390625 9.75 -2.390625q8.3125 0 13.625 5.40625q5.3125 5.390625 5.3125 13.640625q0 8.3125 -5.375 13.78125q-5.359375 5.46875 -13.5 5.46875q-5.03125 0 -9.609375 -2.265625q-4.5625 -2.28125 -6.953125 -6.6875q-2.375 -4.40625 -2.375 -10.71875zm9.9375 0.53125q0 5.4375 2.578125 8.34375q2.59375 2.890625 6.390625 2.890625q3.796875 0 6.359375 -2.890625q2.578125 -2.90625 2.578125 -8.421875q0 -5.375 -2.578125 -8.265625q-2.5625 -2.90625 -6.359375 -2.90625q-3.796875 0 -6.390625 2.90625q-2.578125 2.890625 -2.578125 8.34375zm59.581528 18.3125l0 -5.484375q-2.0 2.9375 -5.265625 4.625q-3.25 1.6875 -6.875 1.6875q-3.703125 0 -6.640625 -1.625q-2.921875 -1.625 -4.234375 -4.546875q-1.3125 -2.9375 -1.3125 -8.109375l0 -23.1875l9.703125 0l0 16.84375q0 7.71875 0.53125 9.46875q0.53125 1.734375 1.9375 2.75q1.421875 1.015625 3.59375 1.015625q2.484375 0 4.453125 -1.359375q1.96875 -1.359375 2.6875 -3.375q0.734375 -2.015625 0.734375 -9.890625l0 -15.453125l9.6875 0l0 36.640625l-9.0 0zm52.378387 0l-9.703125 0l0 -18.703125q0 -5.9375 -0.625 -7.671875q-0.609375 -1.75 -2.015625 -2.703125q-1.390625 -0.96875 -3.359375 -0.96875q-2.515625 0 -4.515625 1.375q-2.0 1.375 -2.75 3.65625q-0.734375 2.28125 -0.734375 8.421875l0 16.59375l-9.703125 0l0 -36.640625l9.0 0l0 5.390625q4.796875 -6.21875 12.078125 -6.21875q3.21875 0 5.875 1.15625q2.65625 1.15625 4.015625 2.953125q1.359375 1.796875 1.890625 4.078125q0.546875 2.265625 0.546875 6.515625l0 22.765625zm41.769043 -25.8125l-9.546875 1.734375q-0.484375 -2.859375 -2.203125 -4.3125q-1.703125 -1.453125 -4.421875 -1.453125q-3.625 0 -5.78125 2.5q-2.15625 2.5 -2.15625 8.375q0 6.515625 2.1875 9.203125q2.1875 2.6875 5.875 2.6875q2.765625 0 4.515625 -1.5625q1.765625 -1.578125 2.5 -5.40625l9.515625 1.625q-1.484375 6.5625 -5.703125 9.90625q-4.203125 3.34375 -11.265625 3.34375q-8.046875 0 -12.828125 -5.0625q-4.765625 -5.078125 -4.765625 -14.046875q0 -9.078125 4.796875 -14.125q4.796875 -5.0625 12.96875 -5.0625q6.6875 0 10.640625 2.890625q3.953125 2.875 5.671875 8.765625zm28.576874 14.15625l9.65625 1.609375q-1.859375 5.328125 -5.890625 8.109375q-4.015625 2.765625 -10.046875 2.765625q-9.5625 0 -14.15625 -6.25q-3.609375 -5.0 -3.609375 -12.625q0 -9.109375 4.75 -14.265625q4.765625 -5.15625 12.046875 -5.15625q8.171875 0 12.890625 5.40625q4.734375 5.390625 4.53125 16.53125l-24.296875 0q0.109375 4.3125 2.34375 6.71875q2.25 2.390625 5.59375 2.390625q2.28125 0 3.828125 -1.234375q1.5625 -1.25 2.359375 -4.0zm0.546875 -9.796875q-0.109375 -4.21875 -2.1875 -6.40625q-2.0625 -2.1875 -5.03125 -2.1875q-3.171875 0 -5.234375 2.3125q-2.078125 2.3125 -2.046875 6.28125l14.5 0zm16.795654 -15.1875l8.9375 0l0 5.0q4.796875 -5.828125 11.421875 -5.828125q3.515625 0 6.09375 1.453125q2.59375 1.453125 4.25 4.375q2.421875 -2.921875 5.21875 -4.375q2.796875 -1.453125 5.96875 -1.453125q4.03125 0 6.828125 1.640625q2.796875 1.640625 4.171875 4.8125q1.0 2.34375 1.0 7.59375l0 23.421875l-9.6875 0l0 -20.9375q0 -5.453125 -1.0 -7.046875q-1.34375 -2.0625 -4.140625 -2.0625q-2.046875 0 -3.84375 1.25q-1.78125 1.234375 -2.578125 3.640625q-0.796875 2.390625 -0.796875 7.5625l0 17.59375l-9.6875 0l0 -20.078125q0 -5.34375 -0.515625 -6.890625q-0.515625 -1.5625 -1.609375 -2.3125q-1.09375 -0.765625 -2.953125 -0.765625q-2.234375 0 -4.03125 1.203125q-1.796875 1.203125 -2.578125 3.484375q-0.765625 2.28125 -0.765625 7.5625l0 17.796875l-9.703125 0l0 -36.640625zm84.77783 24.984375l9.65625 1.609375q-1.859375 5.328125 -5.890625 8.109375q-4.015625 2.765625 -10.046875 2.765625q-9.5625 0 -14.15625 -6.25q-3.609375 -5.0 -3.609375 -12.625q0 -9.109375 4.75 -14.265625q4.765625 -5.15625 12.046875 -5.15625q8.171875 0 12.890625 5.40625q4.734375 5.390625 4.53125 16.53125l-24.296875 0q0.109375 4.3125 2.34375 6.71875q2.25 2.390625 5.59375 2.390625q2.28125 0 3.828125 -1.234375q1.5625 -1.25 2.359375 -4.0zm0.546875 -9.796875q-0.109375 -4.21875 -2.1875 -6.40625q-2.0625 -2.1875 -5.03125 -2.1875q-3.171875 0 -5.234375 2.3125q-2.078125 2.3125 -2.046875 6.28125l14.5 0zm50.858124 21.453125l-9.703125 0l0 -18.703125q0 -5.9375 -0.625 -7.671875q-0.609375 -1.75 -2.015625 -2.703125q-1.390625 -0.96875 -3.359375 -0.96875q-2.515625 0 -4.515625 1.375q-2.0 1.375 -2.75 3.65625q-0.734375 2.28125 -0.734375 8.421875l0 16.59375l-9.7030945 0l0 -36.640625l8.9999695 0l0 5.390625q4.796875 -6.21875 12.078125 -6.21875q3.21875 0 5.875 1.15625q2.65625 1.15625 4.015625 2.953125q1.359375 1.796875 1.890625 4.078125q0.546875 2.265625 0.546875 6.515625l0 22.765625zm26.628479 -36.640625l0 7.734375l-6.625 0l0 14.765625q0 4.484375 0.1875 5.234375q0.1875 0.734375 0.859375 1.21875q0.671875 0.484375 1.640625 0.484375q1.34375 0 3.90625 -0.9375l0.828125 7.515625q-3.390625 1.453125 -7.671875 1.453125q-2.609375 0 -4.71875 -0.875q-2.109375 -0.890625 -3.09375 -2.28125q-0.984375 -1.390625 -1.359375 -3.78125q-0.3125 -1.6875 -0.3125 -6.828125l0 -15.96875l-4.453186 0l0 -7.734375l4.453186 0l0 -7.281246l9.734375 -5.65625l0 12.937496l6.625 0z" fill-rule="nonzero"/></g></svg>